<svg version="1.1" xmlns="http://www.w3.org/2000/svg" xmlns:xlink="http://www.w3.org/1999/xlink" x="0px" y="0px"
	 width="72px" height="76.3px" viewBox="-269.1 242.6 72 76.3" style="enable-background:new -269.1 242.6 72 76.3;"
	 xml:space="preserve">
	<path fill="#00B1E7" class="st0" d="M-197.1,259.4c0-2.7-0.4-5.4-1.1-8.1c-1-3.2-3.4-5.8-6.5-7c-6.3-2.2-13.1-2.2-19.4,0c-3.2,1.2-5.6,3.8-6.5,7
	c-1.5,5.3-1.5,10.9,0,16.2c1,3.2,3.4,5.8,6.5,7c3.1,1.1,6.4,1.7,9.7,1.6c3.3,0,6.6-0.6,9.7-1.6c3.2-1.2,5.6-3.8,6.5-7
	C-197.5,264.8-197.1,262.1-197.1,259.4z M-207.6,259.4c0,1.3-0.2,2.7-0.6,3.9c-0.5,1.7-2,3-3.8,3.4c-1.7,0.3-3.4,0.3-5,0
	c-1.8-0.3-3.2-1.6-3.8-3.4c-0.8-2.6-0.8-5.3,0-7.9c0.5-1.7,2-3,3.8-3.4c1.7-0.3,3.4-0.3,5,0c1.8,0.3,3.2,1.6,3.8,3.4
	C-207.8,256.7-207.6,258.1-207.6,259.4 M-235.5,303.3c1.5-5.3,1.5-10.9,0-16.2c-1-3.2-3.4-5.8-6.5-7c-6.3-2.2-13.1-2.2-19.4,0
	c-3.2,1.2-5.6,3.8-6.5,7c-1.5,5.3-1.5,10.9,0,16.2c1,3.2,3.4,5.8,6.5,7c6.3,2.2,13.1,2.2,19.4,0
	C-238.9,309.2-236.4,306.6-235.5,303.3 M-244.9,295.3c0,1.3-0.2,2.7-0.6,3.9c-0.5,1.7-2,3-3.8,3.4c-1.7,0.3-3.4,0.3-5,0
	c-1.8-0.3-3.2-1.6-3.8-3.4c-0.8-2.6-0.8-5.3,0-7.9c0.5-1.7,2-3,3.8-3.4c1.7-0.3,3.4-0.3,5,0c1.8,0.3,3.2,1.6,3.8,3.4
	C-245.1,292.6-244.9,293.9-244.9,295.3 M-244.9,259.3h10.5c0-2.7-0.4-5.4-1.1-8c-1-3.2-3.4-5.8-6.5-7c-6.3-2.2-13.1-2.2-19.4,0
	c-3.2,1.2-5.6,3.8-6.5,7c-1.5,5.3-1.5,10.9,0,16.2c1,3.2,3.4,5.8,6.5,7c3.1,1.1,6.4,1.6,9.7,1.6c3.3,0,6.6-0.6,9.7-1.6
	c3.2-1.2,5.6-3.8,6.5-7c0.1-0.4,0.2-0.9,0.4-1.4l-9.9-4.6c-0.1,0.6-0.2,1.2-0.4,1.8c-0.5,1.7-2,3-3.8,3.4c-1.7,0.3-3.4,0.3-5,0
	c-1.8-0.3-3.2-1.6-3.8-3.4c-0.8-2.6-0.8-5.3,0-7.9c0.5-1.7,2-3,3.8-3.4c1.7-0.3,3.4-0.3,5,0c1.8,0.3,3.2,1.6,3.8,3.4
	C-245.1,256.7-244.9,258-244.9,259.3 M-230.8,287.2c-0.7,2.6-1.1,5.3-1.1,8.1v23.7h10.5v-23.7c0-1.3,0.2-2.7,0.6-3.9
	c0.5-1.7,2-3,3.8-3.4c1.7-0.3,3.4-0.3,5,0c1.8,0.3,3.2,1.6,3.8,3.4c0.8,2.6,0.8,5.3,0,7.9c-0.5,1.7-2,3-3.7,3.4
	c-1.7,0.3-3.4,0.3-5,0c-0.3-0.1-0.7-0.2-1-0.3l3.6,9.8c3.3,0,6.6-0.6,9.7-1.6c3.2-1.2,5.6-3.8,6.5-7c1.5-5.3,1.5-10.9,0-16.2
	c-1-3.2-3.4-5.8-6.5-7c-6.3-2.2-13.1-2.2-19.4,0C-227.4,281.4-229.8,284-230.8,287.2"/>
</svg>
